<svg id="svg" version="1.1" xmlns="http://www.w3.org/2000/svg" xmlns:xlink="http://www.w3.org/1999/xlink" width="400" height="392" viewBox="0, 0, 400,392"><g id="svgg"><path id="path0" d="M288.627 18.862 C 288.627 19.438,288.448 19.623,288.039 19.466 C 287.586 19.292,287.451 19.553,287.451 20.601 C 287.451 21.699,287.300 21.961,286.667 21.961 C 286.144 21.961,285.882 22.222,285.882 22.745 C 285.882 23.181,285.621 23.529,285.294 23.529 C 284.971 23.529,284.706 23.794,284.706 24.118 C 284.706 24.441,284.441 24.706,284.118 24.706 C 283.794 24.706,283.529 24.971,283.529 25.294 C 283.529 25.621,283.181 25.882,282.745 25.882 C 282.222 25.882,281.961 26.144,281.961 26.667 C 281.961 27.270,281.699 27.451,280.826 27.451 C 280.180 27.451,279.595 27.704,279.466 28.039 C 279.342 28.363,278.970 28.627,278.640 28.627 C 278.301 28.627,278.039 28.969,278.039 29.412 C 278.039 29.847,277.778 30.196,277.451 30.196 C 277.127 30.196,276.863 30.461,276.863 30.784 C 276.863 31.108,276.593 31.373,276.262 31.373 C 275.932 31.373,275.560 31.637,275.436 31.961 C 275.312 32.284,274.789 32.549,274.275 32.549 C 273.761 32.549,273.120 32.902,272.850 33.333 C 272.581 33.765,272.138 34.118,271.866 34.118 C 271.595 34.118,271.373 34.382,271.373 34.706 C 271.373 35.071,271.003 35.294,270.395 35.294 C 269.843 35.294,269.206 35.635,268.929 36.078 C 268.659 36.510,268.217 36.863,267.945 36.863 C 267.673 36.863,267.451 37.127,267.451 37.451 C 267.451 37.862,267.037 38.039,266.078 38.039 C 264.975 38.039,264.706 38.190,264.706 38.811 C 264.706 39.336,264.518 39.511,264.118 39.358 C 263.709 39.201,263.529 39.385,263.529 39.958 C 263.529 40.641,263.291 40.784,262.157 40.784 C 261.198 40.784,260.784 40.962,260.784 41.373 C 260.784 41.769,260.388 41.961,259.571 41.961 C 258.688 41.961,258.302 42.174,258.153 42.745 C 258.010 43.292,257.618 43.529,256.859 43.529 C 256.253 43.529,255.670 43.790,255.544 44.118 C 255.420 44.441,255.048 44.706,254.718 44.706 C 254.388 44.706,254.118 44.971,254.118 45.294 C 254.118 45.846,253.428 46.068,252.225 45.905 C 251.938 45.866,251.609 46.198,251.492 46.642 C 251.332 47.258,250.964 47.451,249.954 47.451 C 249.036 47.451,248.627 47.632,248.627 48.039 C 248.627 48.435,248.231 48.627,247.414 48.627 C 246.531 48.627,246.145 48.841,245.996 49.412 C 245.851 49.967,245.461 50.196,244.660 50.196 C 243.916 50.196,243.529 50.397,243.529 50.784 C 243.529 51.191,243.121 51.373,242.203 51.373 C 241.233 51.373,240.824 51.571,240.682 52.112 C 240.535 52.675,240.239 52.803,239.437 52.650 C 238.601 52.490,238.339 52.621,238.166 53.283 C 237.998 53.927,237.645 54.118,236.621 54.118 C 235.703 54.118,235.294 54.299,235.294 54.706 C 235.294 55.143,234.833 55.294,233.493 55.294 C 232.021 55.294,231.654 55.438,231.486 56.078 C 231.332 56.668,230.951 56.863,229.954 56.863 C 229.036 56.863,228.627 57.044,228.627 57.451 C 228.627 57.825,228.251 58.039,227.592 58.039 C 227.023 58.039,226.361 58.290,226.122 58.596 C 225.769 59.047,223.989 59.506,222.255 59.593 C 222.093 59.601,221.961 59.873,221.961 60.196 C 221.961 60.590,221.567 60.784,220.772 60.784 C 220.077 60.784,219.489 61.029,219.358 61.373 C 219.203 61.774,218.575 61.961,217.372 61.961 C 215.943 61.961,215.574 62.108,215.408 62.745 C 215.212 63.494,214.690 63.694,213.284 63.558 C 212.933 63.524,212.541 63.769,212.414 64.101 C 212.257 64.509,211.662 64.706,210.588 64.706 C 209.431 64.706,208.917 64.896,208.713 65.400 C 208.547 65.810,207.990 66.111,207.353 66.135 C 204.965 66.226,204.706 66.297,204.706 66.863 C 204.706 67.299,204.247 67.451,202.929 67.451 C 201.711 67.451,201.081 67.636,200.926 68.039 C 200.787 68.402,200.191 68.627,199.370 68.627 C 198.301 68.627,198.039 68.782,198.039 69.412 C 198.039 70.092,197.778 70.196,196.078 70.196 C 194.597 70.196,194.118 70.340,194.118 70.784 C 194.118 71.229,193.638 71.373,192.157 71.373 C 190.675 71.373,190.196 71.516,190.196 71.961 C 190.196 72.284,189.975 72.565,189.706 72.586 C 189.436 72.606,188.531 72.668,187.695 72.725 C 186.774 72.787,186.031 73.082,185.812 73.472 C 185.540 73.959,184.876 74.118,183.118 74.118 C 181.305 74.118,180.784 74.249,180.784 74.706 C 180.784 75.150,180.305 75.294,178.824 75.294 C 177.124 75.294,176.863 75.399,176.863 76.078 C 176.863 76.781,176.601 76.863,174.356 76.863 C 172.489 76.863,171.791 77.013,171.623 77.451 C 171.466 77.861,170.826 78.039,169.511 78.039 C 168.414 78.039,167.249 78.303,166.726 78.669 C 166.232 79.015,165.001 79.344,163.992 79.400 C 162.983 79.456,161.848 79.525,161.471 79.555 C 161.093 79.584,160.784 79.873,160.784 80.196 C 160.784 80.659,160.238 80.784,158.223 80.784 C 156.308 80.784,155.605 80.933,155.436 81.373 C 155.273 81.798,154.599 81.962,152.997 81.966 C 150.241 81.973,149.020 82.286,149.020 82.987 C 149.020 83.519,147.010 83.724,143.627 83.539 C 142.780 83.493,142.272 83.677,142.114 84.088 C 141.926 84.578,141.240 84.706,138.801 84.706 C 136.344 84.706,135.652 84.837,135.361 85.357 C 135.070 85.877,134.298 86.022,131.518 86.082 C 126.438 86.192,126.275 86.216,126.275 86.863 C 126.275 87.348,125.556 87.451,122.157 87.451 C 118.846 87.451,118.039 87.561,118.039 88.012 C 118.039 88.471,116.884 88.596,111.732 88.699 C 106.268 88.807,105.358 88.915,104.924 89.510 C 104.468 90.135,103.454 90.196,93.572 90.196 C 84.288 90.196,82.688 90.281,82.495 90.784 C 82.302 91.287,80.738 91.373,71.742 91.373 C 62.358 91.373,61.176 91.443,60.852 92.021 C 60.603 92.466,59.965 92.670,58.820 92.670 C 57.526 92.670,57.107 92.833,56.961 93.394 C 56.801 94.003,56.372 94.118,54.256 94.118 C 52.381 94.118,51.683 94.268,51.514 94.706 C 51.383 95.047,50.797 95.294,50.117 95.294 C 49.287 95.294,48.888 95.516,48.747 96.057 C 48.613 96.570,48.144 96.858,47.313 96.939 C 46.581 97.010,46.118 97.258,46.176 97.549 C 46.240 97.865,45.797 98.039,44.931 98.039 C 43.963 98.039,43.550 98.231,43.455 98.725 C 43.382 99.102,43.061 99.428,42.740 99.449 C 41.026 99.564,40.784 99.656,40.784 100.196 C 40.784 100.528,40.433 100.784,39.977 100.784 C 39.504 100.784,39.277 100.958,39.428 101.203 C 39.571 101.433,39.317 101.718,38.863 101.837 C 38.394 101.960,38.039 102.370,38.039 102.791 C 38.039 103.197,37.775 103.529,37.451 103.529 C 37.127 103.529,36.863 103.794,36.863 104.118 C 36.863 104.445,36.514 104.706,36.075 104.706 C 35.641 104.706,34.984 105.059,34.615 105.490 C 34.246 105.922,33.737 106.275,33.484 106.275 C 33.232 106.275,32.924 106.539,32.799 106.863 C 32.675 107.186,32.303 107.451,31.973 107.451 C 31.643 107.451,31.373 107.721,31.373 108.052 C 31.373 108.382,31.108 108.754,30.784 108.878 C 30.426 109.015,30.196 109.609,30.196 110.397 C 30.196 111.498,30.079 111.661,29.412 111.486 C 28.805 111.327,28.627 111.474,28.627 112.134 C 28.627 112.639,28.457 112.882,28.209 112.729 C 27.978 112.586,27.694 112.840,27.575 113.294 C 27.447 113.783,27.042 114.118,26.579 114.118 C 26.071 114.118,25.872 114.309,26.009 114.667 C 26.135 114.994,25.913 115.297,25.463 115.415 C 24.921 115.557,24.706 115.957,24.706 116.826 C 24.706 117.643,24.514 118.039,24.118 118.039 C 23.707 118.039,23.529 118.453,23.529 119.412 C 23.529 120.523,23.380 120.784,22.745 120.784 C 22.110 120.784,21.961 121.046,21.961 122.157 C 21.961 123.115,21.783 123.529,21.373 123.529 C 20.964 123.529,20.784 123.940,20.784 124.873 C 20.784 125.841,20.592 126.254,20.098 126.349 C 19.709 126.424,19.391 126.861,19.363 127.358 C 19.336 127.841,19.292 128.676,19.265 129.216 C 19.235 129.804,18.980 130.196,18.627 130.196 C 18.183 130.196,18.039 130.675,18.039 132.157 C 18.039 133.638,17.895 134.118,17.451 134.118 C 16.940 134.118,16.863 135.773,16.863 146.667 C 16.863 157.560,16.940 159.216,17.451 159.216 C 17.895 159.216,18.039 159.693,18.039 161.157 C 18.039 162.555,18.221 163.200,18.688 163.461 C 19.133 163.710,19.336 164.348,19.336 165.494 C 19.336 166.788,19.499 167.206,20.060 167.353 C 20.626 167.501,20.784 167.920,20.784 169.274 C 20.784 170.451,20.973 171.077,21.373 171.231 C 21.696 171.355,21.961 171.663,21.961 171.916 C 21.961 172.169,22.314 172.630,22.745 172.941 C 23.176 173.252,23.529 173.909,23.529 174.400 C 23.529 174.933,23.767 175.294,24.118 175.294 C 24.528 175.294,24.706 175.708,24.706 176.667 C 24.706 177.638,24.882 178.039,25.306 178.039 C 25.637 178.039,26.009 178.304,26.133 178.627 C 26.257 178.951,26.604 179.216,26.905 179.216 C 27.222 179.216,27.451 179.615,27.451 180.168 C 27.451 180.692,27.716 181.385,28.039 181.709 C 28.363 182.032,28.627 182.474,28.627 182.691 C 28.627 182.907,28.980 183.196,29.412 183.333 C 29.843 183.470,30.196 183.835,30.196 184.144 C 30.196 184.453,30.461 184.706,30.784 184.706 C 31.108 184.706,31.373 184.971,31.373 185.294 C 31.373 185.618,31.625 185.882,31.934 185.882 C 32.243 185.882,32.608 186.235,32.745 186.667 C 32.882 187.098,33.247 187.451,33.556 187.451 C 33.865 187.451,34.118 187.716,34.118 188.039 C 34.118 188.363,34.382 188.627,34.706 188.627 C 35.029 188.627,35.294 188.863,35.294 189.152 C 35.294 189.440,36.265 190.167,37.451 190.767 C 38.637 191.367,39.608 192.014,39.608 192.204 C 39.608 192.394,39.873 192.549,40.196 192.549 C 40.523 192.549,40.784 192.898,40.784 193.333 C 40.784 193.968,41.046 194.118,42.157 194.118 C 43.115 194.118,43.529 194.295,43.529 194.706 C 43.529 195.029,43.794 195.294,44.118 195.294 C 44.441 195.294,44.706 195.540,44.706 195.840 C 44.706 196.440,45.530 196.863,46.699 196.863 C 47.112 196.863,47.451 197.127,47.451 197.451 C 47.451 197.859,47.862 198.039,48.795 198.039 C 49.738 198.039,50.176 198.234,50.265 198.694 C 50.355 199.158,50.887 199.389,52.094 199.485 C 53.030 199.560,54.057 199.883,54.377 200.203 C 54.745 200.571,55.724 200.784,57.045 200.784 C 58.538 200.784,59.196 200.952,59.358 201.373 C 59.544 201.858,60.584 201.961,65.337 201.961 C 70.364 201.961,71.153 202.047,71.591 202.647 C 72.091 203.331,76.445 203.516,92.255 203.527 C 95.232 203.529,95.294 203.549,95.294 204.506 C 95.294 205.059,95.635 205.696,96.078 205.973 C 96.555 206.271,96.863 206.888,96.863 207.545 C 96.863 208.246,97.070 208.627,97.451 208.627 C 97.889 208.627,98.039 209.091,98.039 210.447 C 98.039 211.608,98.252 212.424,98.627 212.702 C 98.950 212.941,99.253 213.623,99.300 214.216 C 99.360 214.956,99.606 215.294,100.086 215.294 C 100.789 215.294,100.942 215.892,100.802 218.086 C 100.762 218.702,100.981 219.207,101.348 219.348 C 101.717 219.490,101.961 220.056,101.961 220.772 C 101.961 221.699,102.133 221.961,102.745 221.961 C 103.425 221.961,103.529 222.222,103.529 223.934 C 103.529 225.326,103.703 225.973,104.118 226.133 C 104.453 226.261,104.706 226.846,104.706 227.493 C 104.706 228.240,104.907 228.627,105.294 228.627 C 105.850 228.627,106.097 229.701,105.949 231.470 C 105.918 231.847,106.243 232.375,106.671 232.643 C 107.143 232.938,107.451 233.557,107.451 234.212 C 107.451 234.912,107.658 235.294,108.039 235.294 C 108.483 235.294,108.627 235.770,108.627 237.228 C 108.627 238.818,108.767 239.207,109.412 239.412 C 109.961 239.586,110.196 240.005,110.196 240.811 C 110.196 241.572,110.395 241.961,110.784 241.961 C 111.223 241.961,111.373 242.424,111.373 243.780 C 111.373 244.941,111.585 245.757,111.960 246.035 C 112.283 246.275,112.586 246.956,112.634 247.549 C 112.693 248.290,112.939 248.627,113.419 248.627 C 113.997 248.627,114.118 248.969,114.118 250.601 C 114.118 251.993,114.291 252.640,114.706 252.799 C 115.041 252.928,115.294 253.513,115.294 254.160 C 115.294 255.033,115.475 255.294,116.078 255.294 C 116.759 255.294,116.863 255.556,116.863 257.267 C 116.863 258.659,117.036 259.307,117.451 259.466 C 117.786 259.595,118.039 260.180,118.039 260.826 C 118.039 261.573,118.240 261.961,118.627 261.961 C 119.170 261.961,119.440 263.145,119.238 264.637 C 119.145 265.322,119.994 266.324,120.437 266.051 C 120.628 265.933,120.784 266.464,120.784 267.232 C 120.784 268.189,120.963 268.627,121.352 268.627 C 121.760 268.627,121.953 269.205,122.038 270.686 C 122.135 272.366,122.283 272.735,122.843 272.691 C 123.372 272.649,123.529 272.940,123.529 273.965 C 123.529 274.885,123.710 275.294,124.118 275.294 C 124.561 275.294,124.706 275.771,124.706 277.235 C 124.706 278.550,124.895 279.283,125.292 279.504 C 125.614 279.685,125.917 280.311,125.965 280.897 C 126.071 282.168,131.373 282.635,131.373 281.373 C 131.373 280.983,131.763 280.784,132.530 280.784 C 133.166 280.784,133.828 280.539,134.000 280.240 C 134.173 279.941,135.108 279.597,136.078 279.476 C 137.049 279.355,137.887 279.247,137.941 279.236 C 137.995 279.225,138.039 278.951,138.039 278.627 C 138.039 278.213,138.458 278.039,139.460 278.039 C 140.701 278.039,140.816 277.962,140.374 277.429 C 140.095 277.093,140.029 276.849,140.228 276.887 C 142.043 277.232,144.405 276.795,144.592 276.078 C 144.746 275.489,145.127 275.294,146.124 275.294 C 147.042 275.294,147.451 275.113,147.451 274.706 C 147.451 274.325,147.865 274.100,148.627 274.069 C 150.474 273.992,150.596 273.955,150.957 273.371 C 151.145 273.068,151.864 272.836,152.555 272.855 C 153.486 272.882,153.863 272.694,154.011 272.132 C 154.157 271.571,154.553 271.373,155.524 271.373 C 156.531 271.373,156.785 271.235,156.612 270.784 C 156.430 270.309,156.767 270.196,158.363 270.196 C 159.975 270.196,160.384 270.056,160.581 269.435 C 160.741 268.932,161.247 268.633,162.078 268.553 C 163.628 268.403,164.160 266.758,162.776 266.396 C 162.153 266.233,161.961 265.870,161.961 264.856 C 161.961 263.938,161.780 263.529,161.373 263.529 C 160.964 263.529,160.784 263.119,160.784 262.189 C 160.784 260.461,160.446 259.608,159.762 259.608 C 159.399 259.608,159.216 259.147,159.216 258.235 C 159.216 257.277,159.038 256.863,158.627 256.863 C 158.192 256.863,158.039 256.407,158.039 255.112 C 158.039 253.804,157.854 253.262,157.307 252.969 C 156.818 252.707,156.613 252.233,156.689 251.538 C 156.772 250.785,156.596 250.445,156.049 250.302 C 155.448 250.145,155.294 249.752,155.294 248.373 C 155.294 247.196,155.106 246.570,154.706 246.416 C 154.365 246.285,154.118 245.699,154.118 245.019 C 154.118 244.178,153.897 243.790,153.333 243.643 C 152.724 243.484,152.549 243.108,152.549 241.963 C 152.549 241.130,152.293 240.276,151.961 240.000 C 151.637 239.731,151.373 238.936,151.373 238.233 C 151.373 237.258,151.174 236.902,150.537 236.736 C 149.979 236.590,149.780 236.314,149.937 235.906 C 150.254 235.079,149.844 234.118,149.174 234.118 C 148.780 234.118,148.627 233.571,148.627 232.157 C 148.627 230.675,148.484 230.196,148.039 230.196 C 147.643 230.196,147.451 229.800,147.451 228.983 C 147.451 228.100,147.238 227.714,146.667 227.565 C 146.017 227.395,145.882 227.030,145.882 225.444 C 145.882 224.004,145.737 223.529,145.294 223.529 C 144.883 223.529,144.706 223.115,144.706 222.157 C 144.706 221.198,144.528 220.784,144.118 220.784 C 143.709 220.784,143.529 220.374,143.529 219.444 C 143.529 217.716,143.191 216.863,142.507 216.863 C 142.144 216.863,141.961 216.402,141.961 215.490 C 141.961 214.532,141.783 214.118,141.373 214.118 C 140.964 214.118,140.784 213.707,140.784 212.777 C 140.784 212.040,140.683 211.113,140.559 210.718 C 140.348 210.047,140.362 210.045,140.774 210.686 C 141.133 211.244,141.791 211.373,144.287 211.373 C 147.011 211.373,147.382 211.460,147.561 212.143 C 147.694 212.651,148.076 212.899,148.685 212.872 C 152.054 212.721,154.118 212.971,154.118 213.529 C 154.118 213.974,154.597 214.118,156.078 214.118 C 157.560 214.118,158.039 214.261,158.039 214.706 C 158.039 215.173,158.606 215.294,160.784 215.294 C 163.268 215.294,163.529 215.369,163.529 216.078 C 163.529 216.758,163.791 216.863,165.490 216.863 C 166.972 216.863,167.451 217.007,167.451 217.451 C 167.451 217.889,167.915 218.039,169.270 218.039 C 170.458 218.039,171.244 218.249,171.533 218.645 C 171.975 219.250,173.189 219.530,175.588 219.581 C 176.448 219.599,176.863 219.799,176.863 220.196 C 176.863 220.641,177.342 220.784,178.824 220.784 C 180.305 220.784,180.784 220.928,180.784 221.373 C 180.784 221.817,181.264 221.961,182.745 221.961 C 184.444 221.961,184.706 222.065,184.706 222.745 C 184.706 223.375,184.967 223.529,186.036 223.529 C 186.857 223.529,187.454 223.755,187.593 224.118 C 187.747 224.521,188.378 224.706,189.596 224.706 C 190.914 224.706,191.373 224.858,191.373 225.294 C 191.373 225.618,191.505 225.901,191.667 225.923 C 191.828 225.945,192.653 226.021,193.498 226.091 C 194.380 226.164,195.182 226.481,195.380 226.834 C 195.570 227.174,196.227 227.451,196.840 227.451 C 197.470 227.451,198.054 227.707,198.181 228.039 C 198.335 228.439,198.961 228.627,200.138 228.627 C 201.540 228.627,201.908 228.777,202.074 229.412 C 202.224 229.983,202.609 230.196,203.493 230.196 C 204.310 230.196,204.706 230.388,204.706 230.784 C 204.706 231.192,205.115 231.373,206.036 231.373 C 206.803 231.373,207.455 231.601,207.574 231.912 C 207.688 232.208,208.589 232.572,209.577 232.720 C 210.753 232.896,211.373 233.184,211.373 233.553 C 211.373 233.937,211.812 234.118,212.745 234.118 C 213.704 234.118,214.118 234.295,214.118 234.706 C 214.118 235.117,214.532 235.294,215.490 235.294 C 216.601 235.294,216.863 235.444,216.863 236.078 C 216.863 236.682,217.124 236.863,217.997 236.863 C 218.644 236.863,219.229 237.116,219.358 237.451 C 219.489 237.795,220.077 238.039,220.772 238.039 C 221.527 238.039,221.961 238.239,221.961 238.585 C 221.961 239.152,222.774 239.608,223.786 239.608 C 224.107 239.608,224.634 239.873,224.958 240.196 C 225.282 240.520,225.975 240.784,226.499 240.784 C 227.084 240.784,227.451 241.011,227.451 241.373 C 227.451 241.783,227.865 241.961,228.824 241.961 C 229.879 241.961,230.196 242.122,230.196 242.660 C 230.196 243.137,230.534 243.386,231.260 243.446 C 231.846 243.495,232.472 243.798,232.652 244.120 C 232.833 244.442,233.480 244.706,234.091 244.706 C 234.878 244.706,235.263 244.938,235.411 245.501 C 235.525 245.939,235.766 246.271,235.947 246.239 C 237.027 246.049,238.039 246.351,238.039 246.863 C 238.039 247.190,238.388 247.451,238.824 247.451 C 239.259 247.451,239.608 247.712,239.608 248.039 C 239.608 248.431,240.000 248.627,240.784 248.627 C 241.528 248.627,241.961 248.828,241.961 249.174 C 241.961 249.773,242.785 250.196,243.954 250.196 C 244.367 250.196,244.706 250.461,244.706 250.784 C 244.706 251.111,245.054 251.373,245.490 251.373 C 245.926 251.373,246.275 251.634,246.275 251.961 C 246.275 252.497,246.937 252.727,248.090 252.589 C 248.333 252.560,248.626 252.892,248.739 253.327 C 248.891 253.905,249.273 254.118,250.159 254.118 C 250.976 254.118,251.373 254.310,251.373 254.706 C 251.373 255.029,251.625 255.294,251.934 255.294 C 252.243 255.294,252.607 255.643,252.743 256.070 C 252.878 256.497,253.111 256.829,253.259 256.808 C 254.348 256.653,255.294 256.952,255.294 257.451 C 255.294 257.775,255.626 258.039,256.033 258.039 C 256.441 258.039,256.863 258.389,256.976 258.824 C 257.115 259.354,257.511 259.608,258.199 259.608 C 258.841 259.608,259.216 259.824,259.216 260.196 C 259.216 260.523,259.564 260.784,260.000 260.784 C 260.436 260.784,260.784 261.046,260.784 261.373 C 260.784 261.696,261.028 261.961,261.327 261.961 C 261.625 261.961,261.962 262.314,262.074 262.745 C 262.224 263.316,262.609 263.529,263.493 263.529 C 264.310 263.529,264.706 263.722,264.706 264.118 C 264.706 264.441,264.950 264.706,265.248 264.706 C 265.547 264.706,265.883 265.059,265.996 265.490 C 266.109 265.922,266.482 266.275,266.826 266.275 C 267.170 266.275,267.451 266.539,267.451 266.863 C 267.451 267.186,267.721 267.451,268.052 267.451 C 268.382 267.451,268.754 267.716,268.878 268.039 C 269.006 268.375,269.591 268.627,270.238 268.627 C 271.111 268.627,271.373 268.808,271.373 269.412 C 271.373 269.847,271.634 270.196,271.961 270.196 C 272.284 270.196,272.549 270.461,272.549 270.784 C 272.549 271.111,272.898 271.373,273.333 271.373 C 273.869 271.373,274.118 271.634,274.118 272.199 C 274.118 272.772,274.298 272.956,274.706 272.799 C 275.068 272.661,275.294 272.800,275.294 273.162 C 275.294 273.485,275.589 273.863,275.950 274.002 C 276.793 274.325,277.832 275.366,278.156 276.210 C 278.296 276.573,278.635 276.824,278.911 276.768 C 279.186 276.712,279.363 276.902,279.302 277.191 C 279.242 277.479,279.551 277.808,279.989 277.923 C 280.427 278.037,280.784 278.457,280.784 278.857 C 280.784 279.341,280.980 279.508,281.373 279.358 C 281.781 279.201,281.961 279.385,281.961 279.958 C 281.961 280.523,282.209 280.784,282.745 280.784 C 283.380 280.784,283.529 281.046,283.529 282.157 C 283.529 283.115,283.707 283.529,284.118 283.529 C 284.441 283.529,284.706 283.794,284.706 284.118 C 284.706 284.441,284.971 284.706,285.294 284.706 C 285.618 284.706,285.904 284.971,285.931 285.294 C 285.958 285.618,286.025 286.059,286.078 286.275 C 286.132 286.490,286.199 286.843,286.225 287.059 C 286.252 287.275,286.528 287.451,286.838 287.451 C 287.187 287.451,287.448 287.936,287.524 288.725 C 287.592 289.426,287.824 289.950,288.039 289.889 C 288.255 289.828,288.520 290.446,288.627 291.262 L 288.824 292.745 307.255 292.854 C 317.392 292.914,326.084 292.866,326.569 292.748 L 327.452 292.534 327.353 155.385 L 327.255 18.235 307.941 18.134 L 288.627 18.032 288.627 18.862 M288.627 151.611 C 288.627 224.616,288.572 231.827,288.007 231.611 C 287.666 231.480,287.048 231.373,286.635 231.373 C 286.221 231.373,285.882 231.108,285.882 230.784 C 285.882 230.461,285.638 230.196,285.340 230.196 C 285.041 230.196,284.699 229.820,284.579 229.361 C 284.444 228.846,284.148 228.607,283.807 228.738 C 283.502 228.855,282.964 228.613,282.611 228.201 C 282.257 227.788,281.702 227.451,281.376 227.451 C 281.051 227.451,280.784 227.186,280.784 226.863 C 280.784 226.539,280.452 226.275,280.046 226.275 C 279.637 226.275,279.216 225.924,279.102 225.490 C 278.951 224.912,278.567 224.706,277.642 224.706 C 276.687 224.706,276.441 224.565,276.612 224.118 C 276.766 223.718,276.591 223.529,276.066 223.529 C 275.642 223.529,275.294 223.284,275.294 222.983 C 275.294 222.384,274.470 221.961,273.301 221.961 C 272.888 221.961,272.549 221.696,272.549 221.373 C 272.549 221.049,272.303 220.784,272.003 220.784 C 271.702 220.784,271.355 220.520,271.231 220.196 C 271.099 219.852,270.511 219.608,269.816 219.608 C 268.889 219.608,268.627 219.435,268.627 218.824 C 268.627 218.189,268.366 218.039,267.255 218.039 C 266.296 218.039,265.882 217.862,265.882 217.451 C 265.882 217.127,265.618 216.863,265.294 216.863 C 264.971 216.863,264.706 216.617,264.706 216.316 C 264.706 215.717,263.882 215.294,262.713 215.294 C 262.299 215.294,261.961 215.029,261.961 214.706 C 261.961 214.295,261.547 214.118,260.588 214.118 C 259.630 214.118,259.216 213.940,259.216 213.529 C 259.216 213.206,258.972 212.941,258.673 212.941 C 258.375 212.941,258.038 212.588,257.926 212.157 C 257.776 211.586,257.391 211.373,256.507 211.373 C 255.690 211.373,255.294 211.180,255.294 210.784 C 255.294 210.377,254.885 210.196,253.967 210.196 C 252.943 210.196,252.591 210.005,252.422 209.361 C 252.275 208.797,252.002 208.603,251.583 208.764 C 251.227 208.900,250.632 208.672,250.187 208.226 C 249.761 207.800,248.971 207.451,248.431 207.451 C 247.821 207.451,247.451 207.229,247.451 206.863 C 247.451 206.452,247.037 206.275,246.078 206.275 C 244.967 206.275,244.706 206.125,244.706 205.490 C 244.706 204.855,244.444 204.706,243.333 204.706 C 242.375 204.706,241.961 204.528,241.961 204.118 C 241.961 203.711,241.552 203.529,240.634 203.529 C 239.624 203.529,239.257 203.337,239.096 202.721 C 238.979 202.276,238.650 201.944,238.364 201.983 C 237.202 202.141,236.476 201.934,236.569 201.471 C 236.625 201.187,236.172 200.925,235.490 200.848 C 234.843 200.776,234.173 200.467,234.000 200.162 C 233.828 199.857,233.208 199.608,232.624 199.608 C 231.986 199.608,231.365 199.294,231.071 198.824 C 230.714 198.252,230.157 198.039,229.016 198.039 C 227.886 198.039,227.451 197.876,227.451 197.451 C 227.451 197.044,227.042 196.863,226.124 196.863 C 225.148 196.863,224.746 196.665,224.602 196.114 C 224.455 195.554,224.099 195.387,223.183 195.451 C 222.234 195.516,221.961 195.376,221.961 194.826 C 221.961 194.237,221.630 194.118,220.000 194.118 C 218.519 194.118,218.039 193.974,218.039 193.529 C 218.039 193.122,217.630 192.941,216.712 192.941 C 215.715 192.941,215.335 192.746,215.180 192.157 C 215.013 191.516,214.646 191.373,213.174 191.373 C 211.834 191.373,211.373 191.222,211.373 190.784 C 211.373 190.373,210.959 190.196,210.000 190.196 C 209.041 190.196,208.627 190.019,208.627 189.608 C 208.627 189.284,208.495 189.013,208.333 189.005 C 206.626 188.919,204.842 188.439,204.588 187.997 C 204.396 187.662,203.616 187.451,202.571 187.451 C 201.449 187.451,200.794 187.258,200.651 186.885 C 200.514 186.527,199.742 186.275,198.550 186.199 C 197.191 186.112,196.667 185.915,196.667 185.490 C 196.667 185.057,196.124 184.871,194.608 184.783 C 193.127 184.698,192.549 184.506,192.549 184.097 C 192.549 183.679,192.044 183.529,190.634 183.529 C 189.049 183.529,188.684 183.394,188.514 182.745 C 188.343 182.093,187.979 181.961,186.353 181.961 C 184.977 181.961,184.331 181.787,184.172 181.373 C 184.006 180.940,183.322 180.784,181.581 180.784 C 179.740 180.784,179.216 180.654,179.216 180.196 C 179.216 179.756,178.747 179.608,177.349 179.608 C 175.907 179.608,175.371 179.429,174.993 178.824 C 174.602 178.197,174.078 178.039,172.392 178.039 C 170.876 178.039,170.216 177.873,170.054 177.451 C 169.900 177.048,169.269 176.863,168.052 176.863 C 166.797 176.863,166.044 176.632,165.490 176.078 C 164.855 175.444,164.183 175.294,161.961 175.294 C 159.758 175.294,159.216 175.176,159.216 174.694 C 159.216 174.212,158.739 174.108,156.804 174.166 C 155.039 174.219,154.275 174.079,153.957 173.645 C 153.672 173.254,152.475 172.953,150.461 172.764 C 148.398 172.571,147.330 172.297,147.187 171.925 C 147.029 171.514,146.178 171.373,143.867 171.373 C 141.467 171.373,140.708 171.239,140.534 170.784 C 140.360 170.332,139.612 170.196,137.300 170.196 C 134.777 170.196,134.184 170.070,133.620 169.412 C 133.029 168.721,132.464 168.627,128.869 168.627 C 125.605 168.627,124.745 168.510,124.564 168.039 C 124.382 167.564,123.479 167.451,119.858 167.451 C 116.440 167.451,115.329 167.324,115.173 166.917 C 115.020 166.519,113.493 166.310,109.164 166.096 C 105.218 165.900,103.108 165.632,102.573 165.257 C 101.968 164.833,100.111 164.703,94.521 164.693 C 88.754 164.684,87.098 164.562,86.494 164.105 C 85.871 163.634,83.927 163.529,75.807 163.529 C 66.144 163.529,65.882 163.509,65.882 162.745 C 65.882 162.110,65.621 161.961,64.510 161.961 C 63.551 161.961,63.137 161.783,63.137 161.373 C 63.137 161.049,62.873 160.784,62.549 160.784 C 62.225 160.784,61.961 160.520,61.961 160.196 C 61.961 159.671,61.229 159.446,59.706 159.502 C 59.407 159.514,59.216 159.003,59.216 158.192 C 59.216 157.272,59.035 156.863,58.627 156.863 C 58.304 156.863,58.039 156.607,58.039 156.294 C 58.039 155.981,57.776 155.578,57.454 155.397 C 57.131 155.217,56.828 154.591,56.780 154.005 C 56.720 153.279,56.470 152.941,55.993 152.941 C 54.820 152.941,54.938 142.146,56.114 141.838 C 56.728 141.677,56.870 141.425,56.680 140.827 C 56.508 140.284,56.685 139.809,57.233 139.339 C 57.676 138.960,58.039 138.247,58.039 137.756 C 58.039 137.223,58.277 136.863,58.627 136.863 C 58.954 136.863,59.216 136.514,59.216 136.078 C 59.216 135.548,59.477 135.294,60.023 135.294 C 60.496 135.294,60.723 135.120,60.572 134.876 C 60.429 134.645,60.683 134.360,61.137 134.242 C 61.606 134.119,61.961 133.708,61.961 133.288 C 61.961 132.705,62.251 132.549,63.333 132.549 C 64.292 132.549,64.706 132.372,64.706 131.961 C 64.706 131.550,65.120 131.373,66.078 131.373 C 67.037 131.373,67.451 131.195,67.451 130.784 C 67.451 130.278,68.878 130.189,77.745 130.148 C 91.055 130.086,91.798 130.041,92.366 129.264 C 92.771 128.711,93.943 128.627,101.318 128.627 C 108.600 128.627,109.804 128.544,109.804 128.039 C 109.804 127.542,110.737 127.451,115.850 127.451 C 122.200 127.451,123.137 127.320,123.137 126.429 C 123.137 125.992,124.082 125.882,127.843 125.882 C 131.765 125.882,132.549 125.784,132.549 125.294 C 132.549 124.813,133.221 124.706,136.246 124.706 C 138.948 124.706,140.097 124.553,140.511 124.139 C 140.900 123.750,142.104 123.549,144.362 123.497 C 148.069 123.412,148.627 123.282,148.627 122.507 C 148.627 122.083,149.373 121.961,151.961 121.961 C 154.662 121.961,155.294 121.849,155.294 121.373 C 155.294 120.860,159.474 120.426,161.308 120.749 C 161.489 120.781,161.728 120.456,161.840 120.028 C 162.013 119.366,162.433 119.232,164.649 119.135 C 166.478 119.054,167.226 118.873,167.157 118.529 C 167.086 118.175,167.817 118.039,169.804 118.039 C 171.983 118.039,172.549 117.918,172.549 117.451 C 172.549 117.017,173.038 116.851,174.412 116.818 C 175.436 116.793,176.451 116.731,176.667 116.681 C 176.882 116.631,177.279 116.563,177.549 116.530 C 177.819 116.497,178.039 116.206,178.039 115.882 C 178.039 115.421,178.579 115.294,180.546 115.294 C 182.413 115.294,183.111 115.144,183.279 114.706 C 183.446 114.272,184.133 114.118,185.907 114.118 C 187.979 114.118,188.337 114.010,188.514 113.333 C 188.692 112.652,189.049 112.549,191.222 112.549 C 193.186 112.549,193.725 112.422,193.725 111.961 C 193.725 111.517,194.203 111.373,195.667 111.373 C 196.984 111.373,197.714 111.184,197.937 110.785 C 198.137 110.428,198.912 110.172,199.911 110.132 C 201.128 110.085,201.616 109.880,201.785 109.348 C 201.966 108.777,202.415 108.627,203.948 108.627 C 205.406 108.627,205.882 108.483,205.882 108.039 C 205.882 107.593,206.366 107.451,207.880 107.451 C 209.548 107.451,209.911 107.321,210.082 106.667 C 210.252 106.017,210.617 105.882,212.203 105.882 C 213.643 105.882,214.118 105.737,214.118 105.294 C 214.118 104.850,214.597 104.706,216.078 104.706 C 217.560 104.706,218.039 104.562,218.039 104.118 C 218.039 103.709,218.450 103.529,219.380 103.529 C 221.107 103.529,221.961 103.191,221.961 102.507 C 221.961 102.113,222.507 101.961,223.922 101.961 C 225.403 101.961,225.882 101.817,225.882 101.373 C 225.882 100.962,226.296 100.784,227.255 100.784 C 228.366 100.784,228.627 100.635,228.627 100.000 C 228.627 99.320,228.889 99.216,230.588 99.216 C 232.070 99.216,232.549 99.072,232.549 98.627 C 232.549 98.217,232.963 98.039,233.922 98.039 C 234.880 98.039,235.294 97.862,235.294 97.451 C 235.294 97.013,235.756 96.863,237.096 96.863 C 238.567 96.863,238.935 96.719,239.102 96.078 C 239.256 95.489,239.637 95.294,240.634 95.294 C 241.552 95.294,241.961 95.113,241.961 94.706 C 241.961 94.194,244.052 93.829,245.588 94.071 C 245.750 94.097,245.882 93.765,245.882 93.333 C 245.882 92.698,246.144 92.549,247.255 92.549 C 248.214 92.549,248.627 92.372,248.627 91.961 C 248.627 91.550,249.041 91.373,250.000 91.373 C 250.921 91.373,251.373 91.190,251.373 90.819 C 251.373 90.477,251.983 90.162,252.968 89.995 C 253.846 89.847,254.659 89.479,254.775 89.177 C 254.898 88.857,255.535 88.627,256.297 88.627 C 257.052 88.627,257.747 88.379,257.936 88.042 C 258.116 87.720,258.743 87.416,259.329 87.368 C 259.952 87.316,260.486 86.990,260.615 86.581 C 260.737 86.197,261.208 85.882,261.662 85.882 C 262.116 85.882,262.779 85.618,263.136 85.295 C 263.493 84.973,264.256 84.669,264.833 84.622 C 265.410 84.574,265.882 84.309,265.882 84.032 C 265.882 83.756,266.221 83.529,266.635 83.529 C 267.803 83.529,268.627 83.107,268.627 82.507 C 268.627 82.160,269.062 81.961,269.816 81.961 C 270.511 81.961,271.099 81.716,271.231 81.373 C 271.355 81.049,271.702 80.784,272.003 80.784 C 272.303 80.784,272.549 80.431,272.549 80.000 C 272.549 79.365,272.810 79.216,273.922 79.216 C 274.880 79.216,275.294 79.038,275.294 78.627 C 275.294 78.217,275.708 78.039,276.667 78.039 C 277.625 78.039,278.039 77.862,278.039 77.451 C 278.039 77.127,278.216 76.841,278.431 76.814 C 278.647 76.787,279.000 76.721,279.216 76.667 C 279.431 76.613,279.784 76.547,280.000 76.520 C 280.216 76.493,280.392 76.206,280.392 75.882 C 280.392 75.556,280.741 75.294,281.176 75.294 C 281.612 75.294,281.961 75.033,281.961 74.706 C 281.961 74.310,282.357 74.118,283.174 74.118 C 284.057 74.118,284.443 73.904,284.592 73.333 C 284.705 72.902,285.041 72.549,285.340 72.549 C 285.638 72.549,285.882 72.284,285.882 71.961 C 285.882 71.550,286.296 71.373,287.255 71.373 L 288.627 71.373 288.627 151.611 M343.529 165.252 C 343.529 199.360,343.590 203.077,344.150 203.291 C 345.419 203.778,379.815 203.557,380.314 203.059 C 380.673 202.699,380.784 193.717,380.784 165.020 L 380.784 127.451 362.157 127.451 L 343.529 127.451 343.529 165.252 M329.257 297.418 C 329.388 297.760,329.668 298.039,329.879 298.039 C 330.394 298.039,330.071 297.148,329.485 296.953 C 329.198 296.857,329.111 297.036,329.257 297.418 M104.967 298.301 C 104.265 299.003,104.686 374.119,105.392 374.087 C 105.802 374.068,105.881 373.976,105.588 373.858 C 105.201 373.702,105.098 365.777,105.098 336.078 C 105.098 306.380,105.201 298.455,105.588 298.299 C 105.862 298.189,105.891 298.087,105.654 298.070 C 105.420 298.053,105.111 298.157,104.967 298.301 M113.039 298.332 C 116.221 298.398,121.426 298.398,124.608 298.332 C 127.789 298.267,125.186 298.213,118.824 298.213 C 112.461 298.213,109.858 298.267,113.039 298.332 M141.475 298.317 C 141.963 298.410,142.669 298.407,143.044 298.309 C 143.419 298.211,143.020 298.134,142.157 298.138 C 141.294 298.142,140.987 298.223,141.475 298.317 M228.673 298.922 C 228.706 299.568,228.766 299.624,228.896 299.129 C 229.050 298.539,229.753 298.438,234.438 298.332 L 239.804 298.211 234.216 298.125 C 228.644 298.039,228.628 298.042,228.673 298.922 M157.806 305.294 C 157.806 308.745,157.866 310.104,157.939 308.315 C 158.012 306.525,158.012 303.702,157.938 302.040 C 157.865 300.379,157.805 301.843,157.806 305.294 M245.882 307.801 C 245.882 307.994,246.147 308.253,246.471 308.377 C 246.794 308.501,247.079 309.094,247.104 309.694 C 247.134 310.414,247.213 310.541,247.335 310.067 C 247.619 308.969,247.113 307.451,246.463 307.451 C 246.144 307.451,245.882 307.609,245.882 307.801 M157.647 312.128 C 157.647 312.328,157.338 312.572,156.961 312.671 C 156.444 312.806,156.493 312.861,157.157 312.896 C 157.700 312.924,158.039 312.715,158.039 312.353 C 158.039 312.029,157.951 311.765,157.843 311.765 C 157.735 311.765,157.647 311.928,157.647 312.128 M222.052 314.118 C 222.052 314.873,222.132 315.181,222.231 314.804 C 222.330 314.426,222.330 313.809,222.231 313.431 C 222.132 313.054,222.052 313.363,222.052 314.118 M248.627 315.065 C 248.627 315.407,248.907 315.686,249.248 315.686 C 249.941 315.686,249.820 314.842,249.093 314.600 C 248.837 314.514,248.627 314.724,248.627 315.065 M250.230 318.514 C 250.573 318.792,250.965 319.284,251.103 319.608 C 251.248 319.952,251.315 319.790,251.264 319.220 C 251.207 318.582,250.904 318.202,250.392 318.126 C 249.695 318.021,249.677 318.064,250.230 318.514 M286.144 318.301 C 286.000 318.444,285.885 318.753,285.888 318.987 C 285.892 319.274,285.987 319.268,286.182 318.967 C 286.341 318.722,286.824 318.434,287.255 318.326 C 288.014 318.137,288.012 318.129,287.222 318.085 C 286.773 318.060,286.288 318.157,286.144 318.301 M219.382 320.999 C 219.239 321.764,219.231 322.499,219.365 322.633 C 219.498 322.766,219.608 322.405,219.608 321.830 C 219.608 321.255,219.784 320.784,220.000 320.784 C 220.216 320.784,220.392 320.520,220.392 320.196 C 220.392 319.036,219.638 319.636,219.382 320.999 M280.294 322.231 C 279.917 322.330,279.608 322.662,279.608 322.970 C 279.608 323.768,280.121 323.661,280.693 322.745 C 280.963 322.314,281.138 321.981,281.082 322.006 C 281.026 322.031,280.672 322.132,280.294 322.231 M252.656 325.473 C 252.687 325.895,252.793 326.162,252.889 326.065 C 252.986 325.968,253.302 326.086,253.591 326.326 C 254.350 326.955,254.272 326.093,253.501 325.322 C 252.703 324.524,252.586 324.545,252.656 325.473 M277.124 324.967 C 276.537 325.555,276.836 326.393,277.451 325.882 C 277.775 325.614,278.039 325.239,278.039 325.050 C 278.039 324.644,277.497 324.595,277.124 324.967 M232.549 326.699 C 232.549 327.655,233.465 327.520,233.656 326.536 C 233.731 326.149,233.531 325.882,233.166 325.882 C 232.802 325.882,232.549 326.218,232.549 326.699 M275.300 328.137 C 275.304 328.561,275.417 328.658,275.594 328.392 C 275.753 328.155,276.147 327.860,276.471 327.737 C 276.864 327.587,276.766 327.503,276.176 327.482 C 275.584 327.461,275.296 327.676,275.300 328.137 M215.556 330.458 C 215.412 330.601,215.315 331.175,215.340 331.732 C 215.376 332.547,215.423 332.592,215.578 331.961 C 215.684 331.529,215.950 330.956,216.169 330.686 C 216.582 330.177,216.039 329.974,215.556 330.458 M239.491 331.228 C 239.170 331.549,239.913 332.941,240.406 332.941 C 240.614 332.941,240.784 332.754,240.784 332.526 C 240.784 332.297,240.608 332.220,240.392 332.353 C 240.039 332.571,239.830 332.056,239.954 331.275 C 240.010 330.915,239.822 330.896,239.491 331.228 M230.980 333.105 C 230.980 333.410,230.760 333.749,230.490 333.858 C 230.197 333.976,230.276 334.068,230.686 334.087 C 231.121 334.106,231.373 333.831,231.373 333.333 C 231.373 332.902,231.284 332.549,231.176 332.549 C 231.069 332.549,230.980 332.799,230.980 333.105 M293.725 333.333 C 293.441 333.865,293.436 334.118,293.712 334.118 C 293.935 334.118,294.118 333.868,294.118 333.562 C 294.118 333.257,294.338 332.918,294.608 332.809 C 294.977 332.660,294.981 332.603,294.622 332.580 C 294.360 332.563,293.956 332.902,293.725 333.333 M240.784 335.840 C 240.784 336.141,241.049 336.488,241.373 336.612 C 241.773 336.766,241.961 336.591,241.961 336.066 C 241.961 335.641,241.696 335.294,241.373 335.294 C 241.049 335.294,240.784 335.540,240.784 335.840 M256.863 335.834 C 256.863 335.916,257.127 336.202,257.451 336.471 C 257.933 336.870,258.039 336.844,258.039 336.323 C 258.039 335.973,257.775 335.686,257.451 335.686 C 257.127 335.686,256.863 335.753,256.863 335.834 M290.454 336.794 C 290.096 337.190,289.919 337.632,290.062 337.774 C 290.205 337.917,290.576 337.671,290.887 337.227 C 291.620 336.180,291.300 335.860,290.454 336.794 M197.098 337.163 C 197.335 337.321,197.630 337.716,197.753 338.039 C 197.903 338.432,197.988 338.335,198.008 337.745 C 198.029 337.152,197.814 336.865,197.353 336.869 C 196.930 336.872,196.832 336.985,197.098 337.163 M213.725 337.278 C 213.725 337.506,213.549 337.584,213.333 337.451 C 213.118 337.318,212.941 337.478,212.941 337.808 C 212.941 338.179,213.165 338.321,213.529 338.181 C 214.061 337.977,214.393 336.863,213.922 336.863 C 213.814 336.863,213.725 337.050,213.725 337.278 M311.406 337.451 C 311.390 337.667,311.728 338.373,312.157 339.020 L 312.936 340.196 312.939 339.118 C 312.940 338.447,312.731 338.039,312.386 338.039 C 312.080 338.039,311.741 337.819,311.632 337.549 C 311.523 337.279,311.422 337.235,311.406 337.451 M242.093 338.427 C 242.136 339.090,242.409 339.429,242.941 339.483 C 243.506 339.541,243.540 339.507,243.063 339.365 C 242.699 339.256,242.317 338.781,242.215 338.309 C 242.059 337.590,242.039 337.609,242.093 338.427 M197.805 345.490 C 197.805 348.833,197.865 350.201,197.939 348.529 C 198.012 346.858,198.012 344.123,197.939 342.451 C 197.865 340.779,197.805 342.147,197.805 345.490 M227.710 341.331 C 227.130 342.217,227.139 342.259,227.861 342.070 C 228.283 341.959,228.627 341.537,228.627 341.131 C 228.627 340.161,228.452 340.199,227.710 341.331 M211.404 341.667 C 211.424 342.256,211.509 342.354,211.658 341.961 C 211.782 341.637,212.076 341.243,212.314 341.084 C 212.580 340.907,212.482 340.794,212.059 340.790 C 211.598 340.786,211.383 341.074,211.404 341.667 M259.216 342.745 C 259.216 342.961,259.480 343.137,259.804 343.137 C 260.127 343.137,260.392 342.961,260.392 342.745 C 260.392 342.529,260.127 342.353,259.804 342.353 C 259.480 342.353,259.216 342.529,259.216 342.745 M288.039 343.529 C 287.906 343.745,287.940 343.924,288.114 343.928 C 288.289 343.931,288.167 344.105,287.843 344.314 C 287.340 344.639,287.355 344.695,287.941 344.700 C 288.368 344.704,288.627 344.409,288.627 343.922 C 288.627 343.063,288.415 342.921,288.039 343.529 M208.889 347.712 C 208.745 347.856,208.627 348.331,208.627 348.767 C 208.627 349.546,208.641 349.545,209.412 348.718 C 210.424 347.632,209.926 346.675,208.889 347.712 M287.451 347.599 C 287.451 347.680,287.716 347.967,288.039 348.235 C 288.521 348.635,288.627 348.608,288.627 348.087 C 288.627 347.737,288.363 347.451,288.039 347.451 C 287.716 347.451,287.451 347.518,287.451 347.599 M288.627 352.307 C 288.627 352.606,288.977 352.941,289.405 353.053 C 290.066 353.226,290.123 353.145,289.783 352.511 C 289.319 351.642,288.627 351.521,288.627 352.307 M264.013 353.966 C 264.270 354.530,264.548 354.789,264.630 354.541 C 264.838 353.916,264.419 352.941,263.942 352.941 C 263.694 352.941,263.720 353.323,264.013 353.966 M290.723 355.085 C 290.972 355.617,291.237 355.876,291.312 355.661 C 291.504 355.103,291.073 354.118,290.637 354.118 C 290.432 354.118,290.470 354.544,290.723 355.085 M311.480 354.906 C 311.428 355.592,311.494 355.621,311.985 355.130 C 312.683 354.432,312.701 354.118,312.044 354.118 C 311.767 354.118,311.513 354.472,311.480 354.906 M294.515 358.832 C 295.001 359.741,295.294 359.828,295.294 359.062 C 295.294 358.761,295.025 358.412,294.697 358.286 C 294.209 358.099,294.176 358.200,294.515 358.832 M248.633 359.487 C 248.630 359.959,248.816 360.462,249.046 360.604 C 249.688 361.001,249.723 360.684,249.156 359.608 C 248.660 358.668,248.639 358.663,248.633 359.487 M265.882 359.997 C 265.882 360.228,266.147 360.518,266.471 360.642 C 266.800 360.769,267.085 361.410,267.118 362.101 L 267.176 363.333 267.344 362.214 C 267.460 361.433,267.265 360.865,266.697 360.336 C 266.249 359.919,265.882 359.766,265.882 359.997 M275.331 363.137 C 275.317 363.461,275.436 363.902,275.594 364.118 C 276.047 364.733,276.732 364.720,276.732 364.096 C 276.732 363.784,276.511 363.529,276.242 363.529 C 275.972 363.529,275.663 363.309,275.554 363.039 C 275.419 362.705,275.348 362.737,275.331 363.137 M250.196 363.906 C 250.196 364.346,250.362 364.706,250.565 364.706 C 251.214 364.706,251.308 364.134,250.743 363.612 C 250.289 363.192,250.196 363.242,250.196 363.906 M267.451 363.677 C 267.451 363.759,267.716 364.045,268.039 364.314 C 268.521 364.714,268.627 364.687,268.627 364.166 C 268.627 363.816,268.363 363.529,268.039 363.529 C 267.716 363.529,267.451 363.596,267.451 363.677 M202.141 365.516 C 201.681 366.260,202.352 366.444,203.035 365.761 C 203.646 365.150,203.647 365.098,203.048 365.098 C 202.691 365.098,202.283 365.286,202.141 365.516 M276.863 365.869 C 276.863 366.092,277.115 366.275,277.422 366.275 C 277.730 366.275,278.062 366.583,278.161 366.961 C 278.326 367.594,278.344 367.595,278.386 366.975 C 278.411 366.605,278.078 366.113,277.647 365.882 C 277.115 365.598,276.863 365.593,276.863 365.869 M315.031 367.521 C 314.639 368.381,314.692 368.471,315.634 368.542 C 316.332 368.594,316.497 368.511,316.143 368.286 C 315.855 368.102,315.648 367.834,315.682 367.691 C 315.884 366.857,315.392 366.728,315.031 367.521 M312.059 370.074 C 311.681 370.173,311.373 370.533,311.373 370.874 C 311.373 371.403,311.502 371.385,312.255 370.751 C 312.740 370.343,313.211 369.962,313.301 369.906 C 313.519 369.770,312.907 369.853,312.059 370.074 M269.804 370.559 C 269.804 370.791,270.056 370.980,270.365 370.980 C 270.673 370.980,271.010 371.377,271.113 371.863 C 271.240 372.458,271.281 372.363,271.239 371.572 C 271.180 370.472,269.804 369.501,269.804 370.559 M309.314 372.222 C 308.733 372.831,308.720 372.941,309.228 372.941 C 309.558 372.941,309.933 372.669,310.061 372.336 C 310.401 371.450,310.096 371.403,309.314 372.222 M284.905 372.554 C 285.037 372.767,285.323 372.941,285.541 372.941 C 285.760 372.941,286.203 373.206,286.527 373.529 C 286.850 373.853,287.411 374.104,287.773 374.087 C 288.311 374.061,288.324 374.016,287.843 373.839 C 287.520 373.720,286.990 373.408,286.667 373.146 C 285.857 372.489,284.605 372.068,284.905 372.554 M216.919 373.290 C 216.596 373.495,216.540 373.722,216.776 373.868 C 216.991 374.001,217.384 373.846,217.651 373.525 C 218.180 372.887,217.765 372.754,216.919 373.290 M291.623 374.706 C 291.747 375.029,292.293 375.294,292.835 375.294 C 293.667 375.294,293.745 375.202,293.333 374.706 C 293.065 374.382,292.519 374.118,292.121 374.118 C 291.639 374.118,291.472 374.314,291.623 374.706 M302.591 374.739 C 302.444 375.121,302.532 375.300,302.818 375.204 C 303.405 375.009,303.727 374.118,303.212 374.118 C 303.001 374.118,302.722 374.397,302.591 374.739 M322.057 374.608 C 322.146 374.877,322.646 375.156,323.168 375.227 C 324.098 375.353,324.101 375.343,323.333 374.749 C 322.376 374.009,321.840 373.950,322.057 374.608 " stroke="none" fill="#0474fc" fill-rule="evenodd"></path><path id="path1" d="M314.613 297.183 C 314.245 297.416,314.103 300.909,314.025 311.589 L 313.922 325.686 312.896 324.608 C 312.332 324.015,311.660 323.529,311.402 323.529 C 311.145 323.529,311.051 323.341,311.193 323.111 C 311.335 322.880,311.081 322.596,310.628 322.477 C 310.175 322.358,309.804 322.029,309.804 321.745 C 309.804 321.462,309.451 321.117,309.020 320.980 C 308.588 320.843,308.235 320.471,308.235 320.152 C 308.235 319.834,308.015 319.602,307.745 319.637 C 306.419 319.809,305.490 319.555,305.490 319.020 C 305.490 318.675,305.125 318.426,304.608 318.419 C 303.459 318.403,302.098 317.420,302.822 317.129 C 303.152 316.997,303.090 316.914,302.647 316.894 C 302.270 316.877,301.961 317.039,301.961 317.255 C 301.961 317.471,301.652 317.644,301.275 317.641 C 300.764 317.637,300.719 317.552,301.097 317.312 C 301.380 317.133,299.423 316.974,296.685 316.955 C 293.979 316.936,291.765 317.078,291.765 317.272 C 291.765 317.465,291.523 317.530,291.227 317.416 C 290.931 317.303,290.584 317.485,290.455 317.821 C 290.291 318.249,289.691 318.431,288.444 318.431 C 287.126 318.431,286.667 318.583,286.667 319.020 C 286.667 319.343,286.324 319.608,285.905 319.608 C 285.487 319.608,285.033 319.787,284.898 320.006 C 284.763 320.226,284.500 320.311,284.315 320.197 C 284.130 320.082,283.861 320.357,283.718 320.807 C 283.563 321.296,283.238 321.541,282.910 321.415 C 282.608 321.299,282.404 321.418,282.456 321.681 C 282.507 321.943,282.246 322.133,281.875 322.104 C 281.504 322.076,281.100 322.367,280.978 322.752 C 280.856 323.137,280.339 323.556,279.829 323.684 C 279.261 323.827,278.743 324.374,278.491 325.096 C 278.265 325.744,277.806 326.275,277.471 326.275 C 277.137 326.275,276.884 326.407,276.909 326.569 C 277.052 327.476,276.801 328.223,276.382 328.137 C 276.117 328.083,275.841 328.428,275.769 328.903 C 275.696 329.378,275.292 329.876,274.871 330.010 C 274.451 330.143,274.211 330.423,274.340 330.631 C 274.469 330.839,274.221 331.687,273.789 332.516 C 273.357 333.345,272.912 334.600,272.801 335.306 C 272.690 336.012,272.367 336.733,272.084 336.908 C 271.175 337.471,271.309 354.159,272.227 354.823 C 272.745 355.197,272.885 355.693,272.757 356.699 C 272.652 357.512,272.734 357.971,272.957 357.833 C 273.164 357.705,273.333 358.052,273.333 358.604 C 273.333 359.198,273.534 359.568,273.824 359.510 C 274.093 359.456,274.270 359.632,274.216 359.902 C 274.162 360.172,274.306 360.392,274.536 360.392 C 274.774 360.392,274.860 360.774,274.736 361.275 C 274.616 361.760,274.618 361.936,274.742 361.667 C 275.127 360.829,275.578 361.125,275.829 362.379 C 275.962 363.047,276.246 363.472,276.466 363.336 C 276.979 363.019,276.980 363.627,276.467 364.232 C 276.250 364.489,276.170 364.634,276.290 364.554 C 276.590 364.352,281.053 368.758,280.892 369.098 C 280.821 369.249,281.120 369.564,281.558 369.798 C 281.995 370.032,282.353 370.090,282.353 369.927 C 282.353 369.763,282.628 370.022,282.963 370.501 C 283.307 370.992,283.987 371.373,284.520 371.373 C 285.171 371.373,285.400 371.544,285.254 371.924 C 285.110 372.300,285.448 372.564,286.323 372.756 C 287.027 372.910,287.813 373.247,288.071 373.505 C 288.333 373.767,289.797 374.003,291.402 374.041 C 292.983 374.078,294.452 374.312,294.682 374.563 C 294.987 374.895,294.951 374.933,294.547 374.703 C 294.179 374.493,294.089 374.538,294.275 374.839 C 294.722 375.562,301.137 375.287,301.583 374.526 C 301.853 374.066,301.940 374.050,301.949 374.460 C 301.958 374.875,302.085 374.895,302.507 374.545 C 302.808 374.295,303.710 374.039,304.512 373.976 C 305.375 373.908,306.121 373.593,306.338 373.205 C 306.540 372.844,307.125 372.549,307.639 372.549 C 308.152 372.549,308.813 372.308,309.108 372.013 C 309.403 371.717,310.036 371.352,310.514 371.200 C 310.993 371.048,311.283 370.760,311.159 370.560 C 311.035 370.360,311.208 370.196,311.542 370.196 C 311.877 370.196,312.371 369.843,312.640 369.412 C 312.909 368.980,313.346 368.627,313.610 368.627 C 314.106 368.627,315.133 367.090,314.985 366.569 C 314.830 366.019,315.562 366.272,316.214 366.992 C 316.571 367.386,316.892 368.455,316.928 369.366 C 316.974 370.535,317.208 371.137,317.723 371.413 C 318.125 371.628,318.350 371.972,318.223 372.177 C 318.097 372.381,318.373 372.549,318.837 372.549 C 319.350 372.549,319.761 372.855,319.885 373.329 C 320.049 373.956,320.393 374.097,321.648 374.047 C 322.505 374.014,323.323 374.164,323.466 374.381 C 323.804 374.893,325.490 375.320,325.490 374.893 C 325.490 374.712,325.994 374.709,326.610 374.886 C 327.870 375.247,329.804 374.992,329.804 374.464 C 329.804 374.274,330.142 374.118,330.556 374.118 C 332.587 374.118,332.596 374.085,332.519 367.173 C 332.457 361.630,332.357 360.686,331.812 360.478 C 329.459 359.580,329.619 361.782,329.500 328.599 C 329.402 300.867,329.339 298.355,328.727 297.641 C 328.024 296.820,315.808 296.424,314.613 297.183 M106.895 298.725 C 106.734 298.887,106.395 299.020,106.144 299.020 C 105.800 299.020,105.638 308.231,105.490 336.139 C 105.382 356.555,105.408 373.188,105.547 373.102 C 105.686 373.016,105.901 373.209,106.025 373.532 C 106.221 374.043,109.510 374.118,131.941 374.118 L 157.632 374.118 157.859 373.213 C 157.984 372.715,158.032 369.494,157.965 366.056 L 157.843 359.804 139.706 359.702 L 121.569 359.600 121.569 350.780 L 121.569 341.961 137.068 341.961 L 152.568 341.961 152.460 335.392 L 152.353 328.824 136.953 328.824 L 121.553 328.824 121.659 320.784 L 121.765 312.745 139.673 312.643 L 157.581 312.541 157.627 306.141 C 157.653 302.621,157.560 299.446,157.422 299.086 C 157.154 298.387,107.588 298.033,106.895 298.725 M229.412 299.020 C 229.412 299.343,229.168 299.608,228.871 299.608 C 228.373 299.608,227.634 300.951,227.366 302.344 C 227.305 302.662,227.034 303.160,226.765 303.450 C 226.495 303.740,226.275 304.502,226.275 305.142 C 226.275 305.783,225.922 306.686,225.490 307.149 C 224.986 307.690,224.706 308.533,224.706 309.509 C 224.706 310.367,224.544 310.927,224.334 310.797 C 224.129 310.670,223.844 311.189,223.702 311.950 C 223.553 312.744,223.210 313.333,222.898 313.333 C 222.557 313.333,222.331 313.810,222.293 314.608 C 222.260 315.309,222.215 316.118,222.192 316.406 C 222.170 316.694,221.848 317.152,221.478 317.422 C 221.081 317.712,220.872 318.262,220.968 318.761 C 221.058 319.227,220.955 319.608,220.739 319.608 C 220.523 319.608,220.456 319.786,220.590 320.003 C 220.724 320.220,220.558 320.674,220.221 321.011 C 219.884 321.349,219.608 322.044,219.608 322.558 C 219.608 323.071,219.324 323.649,218.977 323.844 C 218.420 324.155,218.251 324.857,218.082 327.549 C 218.059 327.926,217.775 328.235,217.451 328.235 C 217.039 328.235,216.863 328.651,216.863 329.620 C 216.863 330.489,216.644 331.089,216.275 331.231 C 215.951 331.355,215.685 331.923,215.684 332.493 C 215.682 333.063,215.330 334.059,214.902 334.706 C 214.473 335.353,214.122 336.392,214.120 337.016 C 214.119 337.639,213.846 338.348,213.513 338.591 C 213.180 338.834,212.848 339.560,212.773 340.203 C 212.699 340.846,212.618 341.515,212.594 341.690 C 212.569 341.864,212.373 341.898,212.157 341.765 C 211.762 341.521,211.705 341.697,211.566 343.575 C 211.525 344.139,211.200 345.016,210.844 345.525 C 210.487 346.033,210.190 346.807,210.184 347.244 C 210.177 347.681,209.912 348.382,209.595 348.800 C 209.279 349.219,209.020 349.911,209.020 350.338 C 209.020 350.765,208.738 351.425,208.395 351.805 C 208.051 352.185,207.710 353.141,207.637 353.930 C 207.563 354.720,207.227 355.570,206.890 355.820 C 206.552 356.070,206.237 356.760,206.190 357.353 C 206.142 357.946,205.955 358.431,205.774 358.431 C 205.592 358.431,205.553 358.608,205.686 358.824 C 205.820 359.039,205.747 359.216,205.526 359.216 C 205.304 359.216,205.224 359.480,205.348 359.804 C 205.473 360.127,205.367 360.392,205.114 360.392 C 204.848 360.392,204.748 360.692,204.878 361.100 C 205.005 361.502,204.803 362.138,204.410 362.571 C 204.029 362.990,203.663 363.951,203.596 364.706 C 203.529 365.461,203.222 366.274,202.914 366.514 C 202.605 366.753,202.353 367.351,202.353 367.843 C 202.353 368.335,202.051 368.958,201.683 369.227 C 201.199 369.581,201.008 370.303,200.996 371.819 L 200.980 373.922 208.267 374.028 L 215.554 374.134 216.608 373.157 C 217.188 372.620,217.771 371.602,217.904 370.894 C 218.038 370.187,218.374 369.343,218.651 369.020 C 218.928 368.696,219.212 367.814,219.283 367.059 C 219.354 366.304,219.595 365.718,219.818 365.756 C 220.041 365.795,220.248 365.530,220.278 365.168 C 220.307 364.806,220.372 363.926,220.422 363.212 C 220.475 362.462,220.635 362.112,220.803 362.382 C 221.190 363.009,221.961 361.571,221.961 360.222 C 221.961 359.668,222.137 359.216,222.353 359.216 C 222.569 359.216,222.701 358.995,222.647 358.725 C 222.593 358.456,222.747 358.272,222.989 358.317 C 223.256 358.366,223.410 357.827,223.381 356.944 L 223.333 355.490 235.359 355.387 L 247.385 355.283 248.226 356.352 C 248.689 356.940,248.988 357.727,248.890 358.100 C 248.792 358.474,249.032 359.068,249.422 359.421 C 249.819 359.780,250.248 360.912,250.397 361.993 C 250.543 363.054,250.802 363.835,250.974 363.729 C 251.146 363.623,251.409 364.196,251.559 365.003 C 251.709 365.810,252.098 366.768,252.425 367.132 C 252.751 367.496,252.910 367.969,252.777 368.183 C 252.645 368.398,252.693 368.670,252.884 368.788 C 253.076 368.907,253.170 369.535,253.095 370.185 C 253.014 370.880,253.129 371.328,253.373 371.272 C 253.603 371.219,253.996 371.794,254.248 372.549 L 254.706 373.922 262.618 374.028 C 271.144 374.142,272.312 373.824,270.398 371.911 C 269.965 371.478,269.840 370.924,270.005 370.173 C 270.184 369.360,270.035 368.858,269.437 368.261 C 268.992 367.815,268.627 367.037,268.627 366.531 C 268.627 366.024,268.275 365.203,267.843 364.706 C 267.412 364.209,267.059 363.321,267.059 362.733 C 267.059 362.145,266.794 361.445,266.471 361.176 C 266.147 360.908,265.882 360.193,265.882 359.588 C 265.882 358.983,265.587 358.192,265.226 357.831 C 264.864 357.469,264.532 356.883,264.487 356.528 C 264.252 354.684,263.782 353.373,263.433 353.589 C 263.187 353.741,263.100 353.311,263.201 352.449 C 263.316 351.460,263.177 350.949,262.717 350.661 C 262.361 350.440,261.951 349.509,261.805 348.593 C 261.658 347.677,261.286 346.736,260.977 346.503 C 260.669 346.269,260.375 345.417,260.324 344.608 C 260.272 343.771,260.028 343.137,259.758 343.137 C 259.498 343.137,259.168 342.445,259.025 341.599 C 258.882 340.753,258.513 339.965,258.206 339.847 C 257.892 339.727,257.647 339.111,257.647 338.444 C 257.647 337.790,257.471 337.255,257.255 337.255 C 257.039 337.255,256.899 337.123,256.944 336.961 C 257.196 336.047,256.399 333.333,255.878 333.333 C 255.291 333.333,255.205 333.098,255.193 331.471 C 255.189 330.985,255.039 330.588,254.859 330.588 C 254.679 330.588,254.249 329.615,253.903 328.426 C 253.558 327.237,253.111 326.365,252.912 326.489 C 252.528 326.726,252.416 326.023,252.543 324.160 C 252.604 323.254,252.490 323.076,251.976 323.273 C 251.599 323.418,251.431 323.360,251.571 323.133 C 251.703 322.920,251.673 322.525,251.505 322.255 C 251.336 321.985,251.168 321.588,251.131 321.373 C 250.942 320.281,250.743 319.778,250.319 319.320 C 250.052 319.032,249.943 318.268,250.063 317.528 C 250.242 316.426,250.127 316.173,249.271 315.783 C 248.459 315.413,248.297 315.104,248.416 314.157 C 248.512 313.399,248.300 312.683,247.812 312.120 C 247.398 311.643,247.059 310.750,247.059 310.136 C 247.059 309.405,246.856 309.020,246.471 309.020 C 245.956 309.020,245.655 307.997,245.851 306.915 C 245.885 306.728,245.641 306.161,245.309 305.654 C 244.977 305.148,244.706 304.545,244.706 304.315 C 244.706 304.085,244.414 303.240,244.057 302.438 C 243.701 301.636,243.443 300.762,243.485 300.495 C 243.527 300.227,243.372 299.654,243.140 299.220 C 242.574 298.164,229.412 297.972,229.412 299.020 M235.866 319.866 C 235.932 320.263,236.184 320.544,236.425 320.490 C 236.803 320.406,237.048 321.932,236.964 323.850 C 236.951 324.137,237.186 324.274,237.490 324.157 C 237.825 324.028,238.051 324.209,238.069 324.620 C 238.086 324.991,238.177 325.647,238.271 326.078 C 238.366 326.510,238.478 327.172,238.521 327.549 C 238.563 327.926,238.830 328.235,239.112 328.235 C 239.468 328.235,239.579 328.662,239.474 329.621 C 239.390 330.382,239.412 330.915,239.524 330.803 C 239.811 330.516,240.738 332.406,240.899 333.606 C 240.973 334.159,241.345 334.840,241.726 335.118 C 242.106 335.396,242.383 336.035,242.342 336.537 C 242.200 338.246,242.352 338.824,242.941 338.824 C 243.294 338.824,243.549 339.216,243.578 339.804 C 243.605 340.343,243.650 341.167,243.676 341.634 C 243.703 342.101,243.946 342.557,244.216 342.647 C 244.485 342.737,244.706 343.060,244.706 343.366 C 244.706 344.227,227.529 344.188,227.198 343.326 C 226.931 342.630,227.771 340.392,228.300 340.392 C 228.499 340.392,228.633 340.172,228.598 339.902 C 228.411 338.460,228.660 337.229,229.086 337.492 C 229.391 337.681,229.464 337.565,229.304 337.148 C 229.172 336.804,229.244 336.461,229.464 336.388 C 229.685 336.314,229.898 335.641,229.938 334.892 C 229.987 333.972,230.184 333.567,230.546 333.644 C 230.909 333.722,231.013 333.502,230.871 332.958 C 230.756 332.517,230.842 332.157,231.062 332.157 C 231.282 332.157,231.387 331.649,231.296 331.028 C 231.180 330.237,231.343 329.766,231.840 329.456 C 232.325 329.153,232.549 328.535,232.549 327.496 C 232.549 326.661,232.795 325.775,233.095 325.526 C 233.395 325.277,233.747 324.505,233.877 323.811 C 234.249 321.827,234.331 321.590,234.827 321.094 C 235.084 320.837,235.294 320.192,235.294 319.660 C 235.294 318.592,235.676 318.729,235.866 319.866 M302.202 331.366 C 304.306 331.224,305.538 331.371,305.311 331.738 C 305.045 332.168,305.549 332.530,306.734 332.758 C 307.205 332.849,307.779 333.129,308.010 333.382 C 308.321 333.720,308.287 333.758,307.881 333.526 C 307.511 333.316,307.422 333.361,307.610 333.665 C 307.764 333.914,308.144 334.118,308.455 334.118 C 308.765 334.118,309.020 334.275,309.020 334.467 C 309.020 334.660,309.458 334.927,309.994 335.061 C 310.599 335.213,311.062 335.680,311.216 336.291 C 311.352 336.832,311.795 337.454,312.202 337.671 C 312.671 337.922,312.941 338.492,312.941 339.229 C 312.941 340.002,313.139 340.392,313.529 340.392 C 314.590 340.392,314.384 352.804,313.317 353.142 C 312.744 353.324,312.584 353.611,312.755 354.149 C 312.924 354.681,312.807 354.902,312.356 354.902 C 312.005 354.902,311.825 355.075,311.956 355.286 C 312.270 355.794,311.431 357.337,310.989 357.064 C 310.800 356.947,310.537 357.189,310.406 357.602 C 310.275 358.015,309.733 358.463,309.202 358.596 C 308.670 358.729,308.235 359.012,308.235 359.223 C 308.235 359.435,307.926 359.609,307.549 359.610 C 307.172 359.612,306.367 359.940,305.760 360.340 C 304.977 360.856,304.041 361.045,302.525 360.992 C 301.352 360.951,300.392 361.075,300.392 361.266 C 300.392 361.458,300.172 361.479,299.902 361.312 C 299.633 361.146,298.938 361.059,298.358 361.120 C 297.069 361.255,295.566 360.512,295.932 359.920 C 296.083 359.676,296.022 359.597,295.793 359.738 C 295.569 359.876,294.941 359.639,294.396 359.210 C 293.851 358.782,293.213 358.431,292.977 358.431 C 292.742 358.431,292.549 358.179,292.549 357.870 C 292.549 357.561,292.200 357.197,291.773 357.061 C 291.346 356.926,291.014 356.693,291.035 356.545 C 291.138 355.820,290.946 355.269,290.654 355.450 C 290.474 355.561,290.297 355.395,290.261 355.081 C 290.225 354.767,290.167 354.245,290.131 353.922 C 290.095 353.598,289.762 353.333,289.391 353.333 C 288.719 353.333,287.976 350.594,288.195 348.922 C 288.247 348.522,288.028 348.235,287.672 348.235 C 286.847 348.235,286.845 345.322,287.668 343.743 C 288.000 343.106,288.378 341.817,288.506 340.879 C 288.673 339.664,288.892 339.233,289.272 339.379 C 289.564 339.491,289.826 339.368,289.854 339.105 C 289.881 338.843,289.947 338.200,290.000 337.679 C 290.052 337.157,290.383 336.520,290.734 336.263 C 291.085 336.006,291.373 335.595,291.373 335.349 C 291.373 335.103,291.632 334.902,291.948 334.902 C 292.265 334.902,292.438 334.677,292.333 334.403 C 292.126 333.864,294.048 332.549,295.041 332.549 C 295.374 332.549,295.797 332.281,295.980 331.954 C 296.188 331.582,296.997 331.321,298.132 331.260 C 299.132 331.205,300.082 331.029,300.243 330.868 C 300.403 330.708,300.655 330.771,300.802 331.010 C 300.950 331.248,301.579 331.408,302.202 331.366 M163.921 343.941 C 163.922 348.466,164.064 350.574,164.392 350.902 C 165.022 351.532,196.863 351.586,196.863 350.957 C 196.863 350.729,197.039 350.651,197.255 350.784 C 197.868 351.163,197.773 339.142,197.157 338.318 C 196.715 337.726,195.062 337.652,180.294 337.557 L 163.921 337.451 163.921 343.941 " stroke="none" fill="#048bfc" fill-rule="evenodd"></path><path id="path2" d="" stroke="none" fill="#0874fc" fill-rule="evenodd"></path><path id="path3" d="M328.486 297.451 C 328.610 297.775,328.869 298.039,329.062 298.039 C 329.264 298.039,329.412 310.616,329.412 327.843 C 329.412 347.451,329.546 357.647,329.804 357.647 C 330.688 357.647,330.302 298.537,329.412 297.647 C 328.477 296.713,328.178 296.649,328.486 297.451 M105.528 298.353 C 104.769 298.607,104.942 373.582,105.703 373.874 C 106.178 374.056,106.214 373.953,105.889 373.347 C 105.269 372.188,105.533 299.020,106.157 299.020 C 106.416 299.020,106.810 298.837,107.034 298.613 C 107.444 298.203,106.480 298.036,105.528 298.353 M131.266 298.322 C 131.962 298.409,133.197 298.410,134.011 298.325 C 134.824 298.241,134.255 298.170,132.745 298.168 C 131.235 298.166,130.570 298.236,131.266 298.322 M137.745 298.320 C 138.338 298.410,139.309 298.410,139.902 298.320 C 140.495 298.230,140.010 298.157,138.824 298.157 C 137.637 298.157,137.152 298.230,137.745 298.320 M144.020 298.310 C 144.397 298.408,145.015 298.408,145.392 298.310 C 145.770 298.211,145.461 298.130,144.706 298.130 C 143.951 298.130,143.642 298.211,144.020 298.310 M146.765 298.310 C 147.142 298.408,147.760 298.408,148.137 298.310 C 148.515 298.211,148.206 298.130,147.451 298.130 C 146.696 298.130,146.387 298.211,146.765 298.310 M150.686 298.310 C 151.064 298.408,151.681 298.408,152.059 298.310 C 152.436 298.211,152.127 298.130,151.373 298.130 C 150.618 298.130,150.309 298.211,150.686 298.310 M153.431 298.310 C 153.809 298.408,154.426 298.408,154.804 298.310 C 155.181 298.211,154.873 298.130,154.118 298.130 C 153.363 298.130,153.054 298.211,153.431 298.310 M240.098 298.310 C 240.475 298.408,241.093 298.408,241.471 298.310 C 241.848 298.211,241.539 298.130,240.784 298.130 C 240.029 298.130,239.721 298.211,240.098 298.310 M227.457 300.490 C 227.462 301.204,227.536 301.260,227.843 300.784 C 228.334 300.024,228.334 299.608,227.843 299.608 C 227.627 299.608,227.454 300.005,227.457 300.490 M243.892 302.150 C 244.232 302.859,244.563 303.392,244.627 303.334 C 244.907 303.084,244.198 301.216,243.759 301.047 C 243.420 300.918,243.461 301.250,243.892 302.150 M226.353 303.216 C 226.094 303.475,225.882 304.247,225.882 304.932 C 225.882 305.618,225.618 306.398,225.294 306.667 C 224.971 306.935,224.706 307.343,224.706 307.573 C 224.706 307.803,225.059 307.612,225.490 307.149 C 225.922 306.686,226.275 305.783,226.275 305.142 C 226.275 304.502,226.552 303.700,226.891 303.361 C 227.230 303.022,227.353 302.745,227.165 302.745 C 226.977 302.745,226.612 302.957,226.353 303.216 M223.665 310.801 C 223.537 311.134,223.543 311.516,223.677 311.651 C 223.812 311.785,223.922 311.591,223.922 311.219 C 223.922 310.846,224.098 310.651,224.314 310.784 C 224.529 310.918,224.706 310.840,224.706 310.611 C 224.706 309.976,223.927 310.118,223.665 310.801 M121.744 313.050 C 121.638 313.326,121.603 317.076,121.667 321.384 L 121.782 329.216 121.872 321.083 L 121.961 312.950 138.922 312.843 L 155.882 312.737 138.909 312.643 C 125.424 312.568,121.897 312.652,121.744 313.050 M221.471 316.741 C 221.093 316.840,220.784 317.084,220.784 317.284 C 220.784 317.838,221.414 317.717,221.961 317.059 C 222.229 316.735,222.383 316.491,222.303 316.516 C 222.223 316.541,221.848 316.642,221.471 316.741 M290.338 317.451 C 290.214 317.775,289.734 318.060,289.272 318.085 C 288.509 318.126,288.502 318.148,289.190 318.323 C 289.634 318.437,290.151 318.239,290.438 317.847 C 290.708 317.478,291.116 317.293,291.346 317.435 C 291.576 317.577,291.765 317.506,291.765 317.278 C 291.765 316.642,290.594 316.784,290.338 317.451 M282.625 321.385 C 282.020 321.917,281.678 322.353,281.865 322.353 C 282.223 322.353,283.922 320.883,283.922 320.573 C 283.922 320.280,283.782 320.367,282.625 321.385 M234.545 321.330 C 234.107 321.858,234.110 321.962,234.560 321.967 C 234.983 321.972,234.972 322.054,234.510 322.353 C 234.098 322.619,234.073 322.735,234.424 322.739 C 234.988 322.746,235.446 321.829,235.219 321.146 C 235.121 320.854,234.888 320.917,234.545 321.330 M278.301 324.183 C 278.157 324.327,278.039 324.753,278.039 325.131 C 278.039 325.508,277.819 325.906,277.549 326.015 C 277.163 326.170,277.165 326.219,277.559 326.244 C 277.834 326.261,278.236 325.809,278.452 325.240 C 278.850 324.193,278.780 323.704,278.301 324.183 M252.459 325.526 C 252.721 325.870,252.804 326.295,252.644 326.472 C 252.484 326.648,252.558 326.675,252.810 326.531 C 253.061 326.387,253.345 326.491,253.442 326.762 C 253.539 327.033,253.730 327.153,253.866 327.028 C 254.003 326.903,253.635 326.373,253.050 325.851 C 252.464 325.329,252.198 325.183,252.459 325.526 M274.787 329.420 C 274.157 330.027,274.149 330.124,274.709 330.339 C 275.053 330.471,275.236 330.420,275.116 330.225 C 274.996 330.030,275.101 329.803,275.350 329.720 C 275.600 329.637,275.733 329.382,275.647 329.155 C 275.554 328.909,275.204 329.017,274.787 329.420 M254.272 329.640 C 254.403 329.981,254.510 330.334,254.510 330.424 C 254.510 330.514,254.670 330.588,254.865 330.588 C 255.061 330.588,255.128 330.235,255.016 329.804 C 254.903 329.373,254.636 329.020,254.422 329.020 C 254.209 329.020,254.141 329.299,254.272 329.640 M273.304 331.863 C 272.871 333.321,272.956 333.857,273.506 333.130 C 274.196 332.216,274.269 331.765,273.725 331.765 C 273.510 331.765,273.320 331.809,273.304 331.863 M292.773 333.557 C 292.358 333.861,292.106 334.198,292.214 334.306 C 292.322 334.413,292.750 334.253,293.165 333.950 C 293.581 333.646,293.832 333.309,293.724 333.201 C 293.616 333.094,293.188 333.254,292.773 333.557 M309.458 335.162 C 309.807 335.256,310.262 335.710,310.468 336.171 C 310.703 336.699,310.942 336.849,311.111 336.576 C 311.459 336.014,310.334 334.889,309.482 334.947 C 308.896 334.988,308.894 335.012,309.458 335.162 M272.054 335.958 C 271.674 336.057,271.464 336.301,271.587 336.500 C 271.922 337.043,272.436 336.938,272.691 336.275 C 272.815 335.951,272.878 335.707,272.831 335.732 C 272.784 335.757,272.434 335.858,272.054 335.958 M164.510 337.255 C 164.665 337.506,170.531 337.647,180.820 337.647 C 194.740 337.647,196.918 337.726,197.113 338.235 C 197.237 338.559,197.491 338.824,197.677 338.824 C 198.103 338.824,197.650 337.548,197.087 337.163 C 196.417 336.704,164.225 336.795,164.510 337.255 M163.689 343.922 C 163.689 347.480,163.749 348.936,163.821 347.157 C 163.894 345.377,163.894 342.466,163.821 340.686 C 163.749 338.907,163.689 340.363,163.689 343.922 M257.805 338.820 C 257.830 339.454,258.087 339.819,258.537 339.859 C 258.977 339.898,259.022 339.854,258.659 339.740 C 258.344 339.641,258.015 339.173,257.927 338.701 C 257.796 337.994,257.774 338.015,257.805 338.820 M213.039 338.299 C 212.770 338.408,212.563 338.879,212.580 339.346 C 212.601 339.912,212.681 339.999,212.821 339.608 C 212.937 339.284,213.310 338.799,213.649 338.529 C 214.267 338.040,213.965 337.925,213.039 338.299 M121.737 350.784 C 121.737 355.745,121.793 357.720,121.862 355.174 C 121.930 352.627,121.930 348.569,121.861 346.154 C 121.792 343.740,121.737 345.824,121.737 350.784 M243.793 342.976 C 243.988 343.484,242.917 343.545,235.575 343.446 C 230.932 343.384,227.215 343.466,227.315 343.627 C 227.684 344.222,244.706 343.976,244.706 343.375 C 244.706 343.075,244.450 342.731,244.138 342.611 C 243.753 342.463,243.642 342.581,243.793 342.976 M287.090 346.373 C 287.073 347.397,287.200 348.235,287.372 348.235 C 287.545 348.235,287.620 347.574,287.540 346.765 C 287.314 344.488,287.124 344.322,287.090 346.373 M288.147 349.118 C 288.052 349.387,288.104 350.049,288.262 350.588 C 288.512 351.441,288.554 351.378,288.588 350.098 C 288.628 348.605,288.459 348.230,288.147 349.118 M311.496 355.980 C 311.362 356.358,311.178 356.843,311.087 357.059 C 310.996 357.275,311.200 357.108,311.540 356.690 C 312.156 355.930,312.342 355.294,311.948 355.294 C 311.834 355.294,311.630 355.603,311.496 355.980 M264.966 357.157 C 264.868 357.319,265.023 357.668,265.310 357.933 C 265.732 358.323,265.821 358.267,265.774 357.639 C 265.715 356.859,265.298 356.609,264.966 357.157 M308.333 358.444 C 307.448 358.799,307.108 359.608,307.843 359.608 C 308.059 359.608,308.235 359.446,308.235 359.248 C 308.235 359.051,308.721 358.712,309.314 358.495 C 309.907 358.278,310.127 358.098,309.804 358.095 C 309.480 358.092,308.819 358.249,308.333 358.444 M249.020 359.512 C 249.020 359.727,249.284 360.124,249.608 360.392 C 249.936 360.664,250.196 360.707,250.196 360.488 C 250.196 360.273,249.931 359.876,249.608 359.608 C 249.280 359.336,249.020 359.293,249.020 359.512 M296.024 360.418 C 296.559 360.856,297.470 361.152,298.181 361.118 L 299.412 361.059 298.237 360.886 C 297.590 360.791,296.943 360.521,296.797 360.286 C 296.652 360.051,296.210 359.814,295.816 359.759 C 295.219 359.676,295.254 359.787,296.024 360.418 M274.248 360.980 C 274.248 361.304,274.343 361.474,274.459 361.358 C 274.575 361.242,274.987 361.727,275.375 362.436 L 276.079 363.725 275.817 362.553 C 275.452 360.923,274.248 359.717,274.248 360.980 M220.392 363.834 C 220.392 364.218,220.128 364.908,219.806 365.368 C 219.278 366.122,219.284 366.195,219.866 366.110 C 220.455 366.023,221.168 363.137,220.599 363.137 C 220.485 363.137,220.392 363.451,220.392 363.834 M267.059 363.417 C 267.059 363.628,267.412 364.209,267.843 364.706 C 268.275 365.203,268.627 365.479,268.627 365.318 C 268.627 365.157,268.275 364.577,267.843 364.029 C 267.412 363.480,267.059 363.205,267.059 363.417 M251.426 365.724 C 251.397 366.177,251.725 366.954,252.157 367.451 C 252.588 367.948,252.941 368.173,252.941 367.951 C 252.941 367.729,252.687 367.336,252.376 367.078 C 252.066 366.821,251.737 366.225,251.646 365.756 C 251.484 364.925,251.478 364.924,251.426 365.724 M315.466 366.894 C 315.807 367.235,315.997 367.658,315.888 367.834 C 315.780 368.009,315.954 368.254,316.277 368.378 C 317.102 368.695,317.013 367.709,316.146 366.924 C 315.230 366.095,314.641 366.070,315.466 366.894 M218.424 369.225 C 218.151 369.554,218.041 369.936,218.179 370.075 C 218.318 370.213,218.431 370.111,218.431 369.846 C 218.431 369.582,218.608 369.475,218.824 369.608 C 219.039 369.741,219.216 369.575,219.216 369.239 C 219.216 368.473,219.050 368.470,218.424 369.225 M252.618 369.699 C 252.670 370.374,252.823 370.858,252.958 370.774 C 253.279 370.575,253.170 369.117,252.806 368.754 C 252.651 368.599,252.567 369.025,252.618 369.699 M312.670 369.364 C 312.287 369.977,312.321 370.092,312.870 370.050 C 313.624 369.993,314.158 369.402,313.873 368.940 C 313.561 368.436,313.162 368.576,312.670 369.364 M282.353 370.294 C 282.353 370.646,282.541 371.050,282.771 371.193 C 283.444 371.608,283.510 371.236,282.909 370.415 C 282.444 369.779,282.353 369.759,282.353 370.294 M270.054 371.569 C 270.178 371.892,270.438 372.157,270.630 372.157 C 270.823 372.157,270.980 371.892,270.980 371.569 C 270.980 371.245,270.721 370.980,270.404 370.980 C 270.054 370.980,269.917 371.210,270.054 371.569 M306.172 373.330 C 305.532 374.078,305.541 374.105,306.379 373.977 C 306.861 373.904,307.196 373.704,307.123 373.534 C 307.051 373.364,307.227 373.076,307.516 372.893 C 307.934 372.628,307.918 372.560,307.440 372.555 C 307.111 372.552,306.540 372.900,306.172 373.330 M319.234 373.367 C 319.474 373.817,319.767 374.089,319.884 373.972 C 320.207 373.649,319.690 372.549,319.214 372.549 C 318.924 372.549,318.930 372.800,319.234 373.367 M293.498 374.731 C 293.836 375.068,294.292 375.232,294.513 375.096 C 295.107 374.729,294.582 374.118,293.674 374.118 C 292.959 374.118,292.942 374.175,293.498 374.731 M325.490 374.956 C 325.490 375.142,325.931 375.294,326.471 375.294 C 327.010 375.294,327.451 375.226,327.451 375.144 C 327.451 375.061,327.010 374.909,326.471 374.806 C 325.931 374.703,325.490 374.771,325.490 374.956 " stroke="none" fill="#047cfc" fill-rule="evenodd"></path><path id="path4" d="" stroke="none" fill="#0874fc" fill-rule="evenodd"></path></g></svg>